<svg width="75" height="83" viewBox="0 0 75 83" fill="none" xmlns="http://www.w3.org/2000/svg">
<path d="M21.5889 0.804813V64H4.01976V0.804813H21.5889ZM74.4414 0.804813V14.7884H49.1633V25.9036H67.8081V39.2598H49.1633V64H31.5941V0.804813H74.4414ZM16.7283 67.7811V82H12.7752V74.1544L10.0928 82H6.78511L4.08251 74.0939V82H0.129446V67.7811H4.90942L8.47928 77.0183L11.9685 67.7811H16.7283ZM25.7955 82.1412C24.4644 82.1412 23.2408 81.8319 22.1248 81.2134C21.0088 80.5815 20.1214 79.7142 19.4625 78.6117C18.8171 77.4957 18.4944 76.2385 18.4944 74.8401C18.4944 73.4418 18.8171 72.1913 19.4625 71.0887C20.1214 69.9727 21.0088 69.1055 22.1248 68.487C23.2408 67.8685 24.4644 67.5592 25.7955 67.5592C27.1401 67.5592 28.3637 67.8685 29.4662 68.487C30.5822 69.1055 31.4629 69.9727 32.1083 71.0887C32.7537 72.1913 33.0764 73.4418 33.0764 74.8401C33.0764 76.2385 32.7537 77.4957 32.1083 78.6117C31.4629 79.7142 30.5822 80.5815 29.4662 81.2134C28.3502 81.8319 27.1266 82.1412 25.7955 82.1412ZM25.7955 78.4705C26.8039 78.4705 27.5972 78.1411 28.1754 77.4822C28.767 76.8234 29.0628 75.9427 29.0628 74.8401C29.0628 73.7107 28.767 72.8233 28.1754 72.1779C27.5972 71.519 26.8039 71.1896 25.7955 71.1896C24.7736 71.1896 23.9736 71.519 23.3954 72.1779C22.8173 72.8233 22.5282 73.7107 22.5282 74.8401C22.5282 75.9561 22.8173 76.8435 23.3954 77.5024C23.9736 78.1478 24.7736 78.4705 25.7955 78.4705ZM43.9294 74.6989C44.763 74.8872 45.4218 75.304 45.9059 75.9494C46.4034 76.5813 46.6521 77.3074 46.6521 78.1276C46.6521 79.3377 46.2353 80.2857 45.4017 80.9714C44.568 81.6571 43.3982 82 41.8923 82H34.8534V67.7811H41.6705C43.1226 67.7811 44.2588 68.1038 45.079 68.7492C45.9126 69.3946 46.3294 70.3022 46.3294 71.472C46.3294 72.3056 46.1076 73.0048 45.6639 73.5695C45.2336 74.1208 44.6554 74.4973 43.9294 74.6989ZM38.8065 73.4283H40.8032C41.7982 73.4283 42.2957 73.0182 42.2957 72.198C42.2957 71.3509 41.7982 70.9274 40.8032 70.9274H38.8065V73.4283ZM41.1057 78.8133C42.1007 78.8133 42.5982 78.3965 42.5982 77.5629C42.5982 77.1326 42.4638 76.8032 42.1948 76.5746C41.9394 76.346 41.5696 76.2318 41.0856 76.2318H38.8065V78.8133H41.1057ZM52.3376 67.7811V82H48.3846V67.7811H52.3376ZM58.5419 78.9747H62.9588V82H54.5888V67.7811H58.5419V78.9747ZM68.4489 70.9476V73.267H72.9869V76.2721H68.4489V78.8335H73.592V82H64.4959V67.7811H73.592V70.9476H68.4489Z" fill="white"/>
</svg>
